<?xml version="1.0" encoding="UTF-8" standalone="no"?>
<svg
   xmlns:dc="http://purl.org/dc/elements/1.1/"
   xmlns:cc="http://creativecommons.org/ns#"
   xmlns:rdf="http://www.w3.org/1999/02/22-rdf-syntax-ns#"
   xmlns:svg="http://www.w3.org/2000/svg"
   xmlns="http://www.w3.org/2000/svg"
   id="svg55"
   version="1.1"
   viewBox="0 0 48 48">
  <metadata
     id="metadata59">
    <rdf:RDF>
      <cc:Work
         rdf:about="">
        <dc:format>image/svg+xml</dc:format>
        <dc:type
           rdf:resource="http://purl.org/dc/dcmitype/StillImage" />
        <dc:title></dc:title>
      </cc:Work>
    </rdf:RDF>
  </metadata>
  <defs
     id="defs7">
    <linearGradient
       gradientTransform="matrix(0,-1,1,0,-1.5e-6,47.999998)"
       gradientUnits="userSpaceOnUse"
       x2="47"
       x1="1"
       id="linearGradient3764">
      <stop
         id="stop2"
         style="stop-color:#d25d5d;stop-opacity:1" />
      <stop
         id="stop4"
         style="stop-color:#da6163;stop-opacity:1"
         offset="1" />
    </linearGradient>
  </defs>
  <g
     id="g15">
    <path
       id="path9"
       style="opacity:0.05"
       d="m 36.31,5 c 5.859,4.062 9.688,10.831 9.688,18.5 0,12.426 -10.07,22.5 -22.5,22.5 -7.669,0 -14.438,-3.828 -18.5,-9.688 1.037,1.822 2.306,3.499 3.781,4.969 4.085,3.712 9.514,5.969 15.469,5.969 12.703,0 23,-10.298 23,-23 0,-5.954 -2.256,-11.384 -5.969,-15.469 C 39.81,7.306 38.132,6.037 36.31,5 Z m 4.969,3.781 c 3.854,4.113 6.219,9.637 6.219,15.719 0,12.703 -10.297,23 -23,23 -6.081,0 -11.606,-2.364 -15.719,-6.219 4.16,4.144 9.883,6.719 16.219,6.719 12.703,0 23,-10.298 23,-23 0,-6.335 -2.575,-12.06 -6.719,-16.219 z" />
    <path
       id="path11"
       style="opacity:0.1"
       d="m 41.28,8.781 c 3.712,4.085 5.969,9.514 5.969,15.469 0,12.703 -10.297,23 -23,23 -5.954,0 -11.384,-2.256 -15.469,-5.969 4.113,3.854 9.637,6.219 15.719,6.219 12.703,0 23,-10.298 23,-23 0,-6.081 -2.364,-11.606 -6.219,-15.719 z" />
    <path
       id="path13"
       style="opacity:0.2"
       d="M 31.25,2.375 C 39.865,5.529 46,13.792 46,23.505 c 0,12.426 -10.07,22.5 -22.5,22.5 -9.708,0 -17.971,-6.135 -21.12,-14.75 a 23,23 0 0 0 44.875,-7 23,23 0 0 0 -16,-21.875 z" />
  </g>
  <g
     id="g19">
    <path
       id="path17"
       style="fill:url(#linearGradient3764);fill-opacity:1"
       d="M 24,1 C 36.703,1 47,11.297 47,24 47,36.703 36.703,47 24,47 11.297,47 1,36.703 1,24 1,11.297 11.297,1 24,1 Z" />
  </g>
  <path
     d="m 40.03,7.531 c 3.712,4.084 5.969,9.514 5.969,15.469 0,12.703 -10.297,23 -23,23 C 17.045,46 11.615,43.744 7.53,40.031 11.708,44.322 17.54,47 23.999,47 c 12.703,0 23,-10.298 23,-23 0,-6.462 -2.677,-12.291 -6.969,-16.469 z"
     style="opacity:0.1"
     id="path41" />
  <g
     style="opacity:0.1"
     id="g4592"
     transform="matrix(1.2494181,0,0,1.2494181,-5.4358407,-5.5362269)">
    <path
       id="path4584"
       style="opacity:1;fill:#f9f9f9;fill-opacity:1;stroke:none;stroke-width:2.25841045"
       d="M 24,10.449538 A 13.550462,13.550462 0 0 0 10.449537,24 13.550462,13.550462 0 0 0 24,37.550462 13.550462,13.550462 0 0 0 37.550462,24 13.550462,13.550462 0 0 0 24,10.449538 Z m 0,2.25841 A 11.292052,11.292052 0 0 1 35.292052,24 11.292052,11.292052 0 0 1 24,35.292052 11.292052,11.292052 0 0 1 12.707948,24 11.292052,11.292052 0 0 1 24,12.707948 Z" />
    <path
       style="fill:none;fill-opacity:1;stroke:#f9f9f9;stroke-width:0.94465452;stroke-opacity:1"
       d="m 33.009332,29.078785 -9.011436,0.04012 -9.011436,0.04013 4.470969,-7.824195 4.470968,-7.824195 4.540467,7.78407 z"
       id="path4586" />
    <path
       id="path4588"
       d="m 28.461614,27.051518 -4.462656,0.01987 -4.462656,0.01987 2.21412,-3.874709 2.214119,-3.874709 2.248536,3.854838 z"
       style="fill:none;fill-opacity:1;stroke:#f9f9f9;stroke-width:0.46781316;stroke-opacity:1" />
    <rect
       y="27.002523"
       x="22.885408"
       height="9.707737"
       width="2.2291842"
       id="rect4590"
       style="fill:#f9f9f9;fill-opacity:1;stroke:none;stroke-opacity:1" />
  </g>
  <path
     id="path53"
     style="opacity:1;fill:#f9f9f9;fill-opacity:1;stroke:none;stroke-width:2.8216989"
     d="M 23.750001,6.9198075 A 16.930192,16.930192 0 0 0 6.8198069,23.85 16.930192,16.930192 0 0 0 23.750001,40.780192 16.930192,16.930192 0 0 0 40.680193,23.85 16.930192,16.930192 0 0 0 23.750001,6.9198075 Z m 0,2.8216983 A 14.108494,14.108494 0 0 1 37.858495,23.85 14.108494,14.108494 0 0 1 23.750001,37.958494 14.108494,14.108494 0 0 1 9.6415064,23.85 14.108494,14.108494 0 0 1 23.750001,9.7415058 Z" />
  <path
     style="fill:none;fill-opacity:1;stroke:#f9f9f9;stroke-width:1.18026841;stroke-opacity:1"
     d="m 35.006423,30.195524 -11.259051,0.05013 -11.259051,0.05013 5.58611,-9.77569 5.586108,-9.775691 5.672941,9.725558 z"
     id="path3766" />
  <path
     id="path4573"
     d="m 29.324423,27.662622 -5.575724,0.02483 -5.575723,0.02483 2.766362,-4.841131 2.76636,-4.841132 2.809362,4.816305 z"
     style="fill:#f9f9f9;fill-opacity:1;stroke:#f9f9f9;stroke-width:0.58449423;stroke-opacity:1" />
  <rect
     y="27.601408"
     x="22.35741"
     height="12.129023"
     width="2.785183"
     id="rect4575"
     style="fill:#f9f9f9;fill-opacity:1;stroke:none;stroke-width:1.24941814;stroke-opacity:1" />
</svg>
